{
  "accessors": [
    {
      "bufferView": 2,
      "componentType": 5126,
      "count": 11430,
      "max": [
        0.3131835460662842,
        0.19962623715400696,
        1.3798344135284424
      ],
      "min": [
        -0.32523077726364136,
        -0.29825568199157715,
        -0.0009710788726806641
      ],
      "type": "VEC3"
    },
    {
      "bufferView": 2,
      "byteOffset": 137160,
      "componentType": 5126,
      "count": 11430,
      "max": [
        0.999999463558197,
        0.9998682737350464,
        0.9998743534088135
      ],
      "min": [
        -0.999999463558197,
        -0.9998487830162048,
        -0.9996421933174133
      ],
      "type": "VEC3"
    },
    {
      "bufferView": 3,
      "componentType": 5126,
      "count": 11430,
      "max": [
        0.999998927116394,
        0.9998554587364197,
        0.9998179078102112,
        1.0
      ],
      "min": [
        -0.9999948143959045,
        -0.9998056292533875,
        -0.9993957877159119,
        -1.0
      ],
      "type": "VEC4"
    },
    {
      "bufferView": 1,
      "componentType": 5126,
      "count": 11430,
      "max": [
        0.9990234375,
        0.9956874847412109
      ],
      "min": [
        0.0009765625,
        0.0009765625
      ],
      "type": "VEC2"
    },
    {
      "bufferView": 1,
      "byteOffset": 91440,
      "componentType": 5126,
      "count": 11430,
      "max": [
        0.9990234375,
        0.9956874847412109
      ],
      "min": [
        0.0009765625,
        0.0009765625
      ],
      "type": "VEC2"
    },
    {
      "bufferView": 1,
      "byteOffset": 182880,
      "componentType": 5126,
      "count": 11430,
      "max": [
        0.9990234375,
        0.9956874847412109
      ],
      "min": [
        0.0009765625,
        0.0009765625
      ],
      "type": "VEC2"
    },
    {
      "bufferView": 1,
      "byteOffset": 274320,
      "componentType": 5126,
      "count": 11430,
      "max": [
        0.9990234375,
        0.9956874847412109
      ],
      "min": [
        0.0009765625,
        0.0009765625
      ],
      "type": "VEC2"
    },
    {
      "bufferView": 0,
      "componentType": 5125,
      "count": 40824,
      "type": "SCALAR"
    }
  ],
  "asset": {
    "extras": {
      "author": "buresin.eduard (https://sketchfab.com/buresin.eduard)",
      "license": "CC-BY-4.0 (http://creativecommons.org/licenses/by/4.0/)",
      "source": "https://sketchfab.com/3d-models/flower-day-7-3december2022challenge-e8e12fcb2a8d447397ba18dfbd751905",
      "title": "Flower Day 7 #3December2022Challenge"
    },
    "generator": "Sketchfab-14.60.0",
    "version": "2.0"
  },
  "bufferViews": [
    {
      "buffer": 0,
      "byteLength": 163296,
      "name": "floatBufferViews",
      "target": 34963
    },
    {
      "buffer": 0,
      "byteLength": 365760,
      "byteOffset": 163296,
      "byteStride": 8,
      "name": "floatBufferViews",
      "target": 34962
    },
    {
      "buffer": 0,
      "byteLength": 274320,
      "byteOffset": 529056,
      "byteStride": 12,
      "name": "floatBufferViews",
      "target": 34962
    },
    {
      "buffer": 0,
      "byteLength": 182880,
      "byteOffset": 803376,
      "byteStride": 16,
      "name": "floatBufferViews",
      "target": 34962
    }
  ],
  "buffers": [
    {
      "byteLength": 986256,
      "uri": "scene.bin"
    }
  ],
  "extensionsUsed": [
    "KHR_materials_emissive_strength"
  ],
  "images": [
    {
      "uri": "textures/Flower_baseColor.png"
    },
    {
      "uri": "textures/Flower_metallicRoughness.png"
    },
    {
      "uri": "textures/Flower_emissive.png"
    },
    {
      "uri": "textures/Flower_normal.png"
    }
  ],
  "materials": [
    {
      "doubleSided": true,
      "emissiveFactor": [
        1.0,
        1.0,
        1.0
      ],
      "emissiveTexture": {
        "index": 2
      },
      "extensions": {
        "KHR_materials_emissive_strength": {
          "emissiveStrength": 3.032390193951067
        }
      },
      "name": "Flower",
      "normalTexture": {
        "index": 3
      },
      "pbrMetallicRoughness": {
        "baseColorTexture": {
          "index": 0
        },
        "metallicRoughnessTexture": {
          "index": 1
        }
      }
    }
  ],
  "meshes": [
    {
      "name": "Flower_Flower_0",
      "primitives": [
        {
          "attributes": {
            "NORMAL": 1,
            "POSITION": 0,
            "TANGENT": 2,
            "TEXCOORD_0": 3,
            "TEXCOORD_1": 4,
            "TEXCOORD_2": 5,
            "TEXCOORD_3": 6
          },
          "indices": 7,
          "material": 0,
          "mode": 4
        }
      ]
    }
  ],
  "nodes": [
    {
      "children": [
        1
      ],
      "matrix": [
        0.5555555820465088,
        0.0,
        0.0,
        0.0,
        0.0,
        1.2335811972941286e-16,
        -0.5555555820465088,
        0.0,
        0.0,
        0.5555555820465088,
        1.2335811972941286e-16,
        0.0,
        0.0,
        0.0,
        0.0,
        1.0
      ],
      "name": "Sketchfab_model"
    },
    {
      "children": [
        2
      ],
      "matrix": [
        0.009999999776482582,
        0.0,
        0.0,
        0.0,
        0.0,
        0.0,
        0.009999999776482582,
        0.0,
        0.0,
        -0.009999999776482582,
        0.0,
        0.0,
        0.0,
        0.0,
        0.0,
        1.0
      ],
      "name": "54802444763041ebb4283e262cebb0b6.fbx"
    },
    {
      "children": [
        3
      ],
      "name": "RootNode"
    },
    {
      "children": [
        4
      ],
      "matrix": [
        100.0,
        0.0,
        0.0,
        0.0,
        0.0,
        -1.629206793918314e-05,
        -99.99999999999868,
        0.0,
        0.0,
        99.99999999999868,
        -1.629206793918314e-05,
        0.0,
        0.0,
        0.0,
        0.0,
        1.0
      ],
      "name": "Flower"
    },
    {
      "mesh": 0,
      "name": "Flower_Flower_0"
    }
  ],
  "samplers": [
    {
      "magFilter": 9729,
      "minFilter": 9987,
      "wrapS": 10497,
      "wrapT": 10497
    }
  ],
  "scene": 0,
  "scenes": [
    {
      "name": "Sketchfab_Scene",
      "nodes": [
        0
      ]
    }
  ],
  "textures": [
    {
      "sampler": 0,
      "source": 0
    },
    {
      "sampler": 0,
      "source": 1
    },
    {
      "sampler": 0,
      "source": 2
    },
    {
      "sampler": 0,
      "source": 3
    }
  ]
}
